<svg xmlns="http://www.w3.org/2000/svg" width="179" height="100" viewBox="0 0 179 100" fill="none"><path d="M54.1965 45.71C54.557 45.71 54.6771 45.84 54.6771 46.19V54.11H58.7521C59.1026 54.11 59.2327 54.24 59.2327 54.59V55.29C59.2327 55.64 59.1026 55.77 58.7521 55.77H53.3855C53.0351 55.77 52.8949 55.64 52.8949 55.29V46.19C52.8949 45.84 53.0351 45.71 53.3855 45.71H54.1965Z" fill="#262B2C"></path><path d="M62.7871 49.2C62.7871 46.89 64.2489 45.5 66.7921 45.5C69.3352 45.5 70.797 46.89 70.797 49.2V52.28C70.797 54.59 69.3252 55.98 66.7921 55.98C64.259 55.98 62.7871 54.59 62.7871 52.28V49.2ZM69.115 49.2C69.115 47.9 68.304 47.2 66.8422 47.2C65.3803 47.2 64.5794 47.91 64.5794 49.2V52.3C64.5794 53.61 65.3803 54.3 66.8422 54.3C68.304 54.3 69.115 53.58 69.115 52.3V49.2Z" fill="#262B2C"></path><path d="M82.7218 50.26C83.1122 50.26 83.2024 50.39 83.2024 50.74V52.64C83.213 53.0875 83.1231 53.5317 82.9395 53.9401C82.7559 54.3485 82.483 54.7106 82.141 55C81.2917 55.6755 80.2208 56.0106 79.1373 55.94C76.5441 55.94 75.1324 54.55 75.1324 52.24V49.14C75.1324 46.86 76.5942 45.46 79.1373 45.46C81.1398 45.46 82.4414 46.25 82.9921 47.83C83.0229 47.8893 83.0394 47.9551 83.0403 48.0219C83.0413 48.0888 83.0265 48.1549 82.9974 48.2151C82.9682 48.2753 82.9254 48.3279 82.8724 48.3686C82.8193 48.4094 82.7575 48.4372 82.6917 48.45L81.9108 48.72C81.5703 48.84 81.4302 48.77 81.31 48.42C81.1442 47.9928 80.8405 47.6331 80.447 47.3977C80.0535 47.1622 79.5927 47.0645 79.1373 47.12C77.6655 47.12 76.8645 47.83 76.8645 49.12V52.3C76.8645 53.61 77.6755 54.3 79.1373 54.3C80.5991 54.3 81.5003 53.63 81.5003 52.65V51.91H79.3276C78.9671 51.91 78.837 51.77 78.837 51.42V50.74C78.837 50.39 78.9671 50.26 79.3276 50.26H82.7218Z" fill="#262B2C"></path><path d="M87.3375 49.2C87.3375 46.89 88.7993 45.5 91.3424 45.5C93.8856 45.5 95.3474 46.89 95.3474 49.2V52.28C95.3474 54.59 93.8756 55.98 91.3424 55.98C88.8093 55.98 87.3375 54.59 87.3375 52.28V49.2ZM93.6553 49.2C93.6553 47.9 92.8443 47.2 91.3925 47.2C89.9407 47.2 89.1197 47.91 89.1197 49.2V52.3C89.1197 53.61 89.9307 54.3 91.3925 54.3C92.8543 54.3 93.6553 53.58 93.6553 52.3V49.2Z" fill="#262B2C"></path><path d="M100.063 46C100.063 45.78 100.133 45.71 100.354 45.71H100.814C101.034 45.71 101.084 45.78 101.084 46V55.48C101.084 55.7 101.084 55.77 100.814 55.77H100.354C100.133 55.77 100.063 55.7 100.063 55.48V46Z" fill="#262B2C"></path><path d="M110.206 45.71C111.04 45.71 111.839 46.0408 112.429 46.6296C113.018 47.2185 113.35 48.0172 113.35 48.85C113.35 49.6827 113.018 50.4814 112.429 51.0703C111.839 51.6591 111.04 51.99 110.206 51.99H107.202V55.48C107.202 55.7 107.152 55.77 106.942 55.77H106.471C106.261 55.77 106.181 55.7 106.181 55.48V46C106.181 45.78 106.261 45.71 106.471 45.71H110.206ZM110.116 51C110.402 51 110.686 50.9436 110.951 50.834C111.216 50.7245 111.456 50.5639 111.659 50.3615C111.862 50.159 112.022 49.9187 112.132 49.6542C112.242 49.3897 112.298 49.1062 112.298 48.82C112.298 48.5337 112.242 48.2502 112.132 47.9857C112.022 47.7212 111.862 47.4809 111.659 47.2785C111.456 47.076 111.216 46.9155 110.951 46.8059C110.686 46.6963 110.402 46.64 110.116 46.64H107.112V51H110.116Z" fill="#262B2C"></path><path d="M121.169 45.5099C121.942 45.4247 122.722 45.5908 123.393 45.9836C124.064 46.3763 124.591 46.9747 124.894 47.6899C124.974 47.8499 124.894 47.98 124.734 48.06L124.293 48.2599C124.113 48.3299 124.043 48.32 123.933 48.13C123.706 47.5991 123.316 47.1541 122.819 46.8593C122.322 46.5645 121.745 46.4351 121.169 46.49C119.477 46.49 118.556 47.16 118.556 48.36C118.546 48.7267 118.67 49.0846 118.903 49.3676C119.137 49.6507 119.465 49.8397 119.828 49.9C120.366 50.0754 120.924 50.1829 121.49 50.22C122.174 50.2564 122.849 50.3946 123.492 50.63C123.985 50.7858 124.41 51.1065 124.694 51.5381C124.979 51.9696 125.106 52.4858 125.054 53C125.054 54.87 123.692 56 121.189 56C120.368 56.0938 119.54 55.9037 118.842 55.4616C118.144 55.0194 117.619 54.3518 117.355 53.57C117.337 53.5343 117.327 53.4952 117.327 53.4554C117.326 53.4157 117.334 53.3762 117.35 53.3399C117.366 53.3036 117.39 53.2713 117.421 53.2454C117.451 53.2195 117.486 53.2006 117.525 53.1899L117.965 53.03C118 53.0158 118.037 53.009 118.075 53.01C118.112 53.011 118.149 53.0198 118.183 53.0358C118.217 53.0517 118.247 53.0746 118.272 53.1029C118.296 53.1311 118.315 53.1642 118.326 53.2C118.55 53.7649 118.948 54.2439 119.463 54.5675C119.978 54.8912 120.582 55.0426 121.189 55C123.082 55 124.013 54.34 124.013 53C124.03 52.6477 123.922 52.3006 123.708 52.0205C123.493 51.7403 123.186 51.5453 122.841 51.47C122.323 51.3156 121.789 51.2216 121.249 51.1899L120.168 51.05C119.83 50.9782 119.495 50.8881 119.167 50.7799C118.842 50.682 118.54 50.5225 118.276 50.31C118.01 50.0697 117.801 49.7741 117.662 49.444C117.524 49.1139 117.46 48.7575 117.475 48.4C117.545 46.65 118.856 45.5099 121.169 45.5099Z" fill="#262B2C"></path><path d="M130.451 52.35C130.493 53.0571 130.805 53.7214 131.321 54.2071C131.837 54.6928 132.52 54.9633 133.229 54.9633C133.939 54.9633 134.621 54.6928 135.137 54.2071C135.654 53.7214 135.965 53.0571 136.008 52.35V46C136.008 45.78 136.078 45.71 136.298 45.71H136.759C136.979 45.71 137.049 45.78 137.049 46V52.34C137.049 54.61 135.707 55.98 133.234 55.98C130.761 55.98 129.419 54.61 129.419 52.34V46C129.419 45.78 129.49 45.71 129.7 45.71H130.17C130.381 45.71 130.451 45.78 130.451 46V52.35Z" fill="#262B2C"></path><path d="M150.866 45.71C151.086 45.71 151.156 45.78 151.156 46V55.48C151.156 55.7 151.086 55.77 150.866 55.77H150.445C150.235 55.77 150.165 55.7 150.165 55.48V49.71C150.165 48.8704 150.222 48.0318 150.335 47.2H150.275C149.962 47.9607 149.598 48.6991 149.184 49.41L147.031 53.2C147.005 53.2657 146.959 53.322 146.9 53.3612C146.841 53.4005 146.772 53.421 146.701 53.42H146.42C146.348 53.4203 146.278 53.3997 146.217 53.3606C146.157 53.3216 146.109 53.2657 146.08 53.2L143.897 49.37C143.51 48.6692 143.175 47.9405 142.896 47.19H142.836C142.939 48.0295 142.992 48.8743 142.996 49.72V55.48C142.996 55.7 142.926 55.77 142.706 55.77H142.315C142.095 55.77 142.025 55.7 142.025 55.48V46C142.025 45.78 142.095 45.71 142.315 45.71H142.676C142.758 45.7023 142.841 45.7203 142.913 45.7615C142.984 45.8027 143.042 45.865 143.076 45.94L146.581 52.16L150.065 46C150.175 45.79 150.235 45.76 150.455 45.76L150.866 45.71Z" fill="#262B2C"></path><path d="M36.3845 53.55V60.78C36.3845 61.0572 36.2743 61.323 36.078 61.5189C35.8818 61.7149 35.6157 61.825 35.3382 61.825C35.0607 61.825 34.7946 61.7149 34.5984 61.5189C34.4021 61.323 34.2919 61.0572 34.2919 60.78V53.56C34.5832 53.7725 34.9325 53.8911 35.2931 53.9C35.6863 53.9112 36.0714 53.7877 36.3845 53.55ZM45.2955 51.46C45.03 51.46 44.7753 51.5654 44.5875 51.7529C44.3998 51.9404 44.2943 52.1948 44.2943 52.46V53.72C44.2943 53.9972 44.4045 54.263 44.6007 54.4589C44.7969 54.6549 45.0631 54.765 45.3406 54.765C45.6181 54.765 45.8842 54.6549 46.0804 54.4589C46.2766 54.263 46.3869 53.9972 46.3869 53.72V52.51C46.3946 52.3666 46.3714 52.2232 46.3188 52.0896C46.2661 51.956 46.1853 51.8352 46.0817 51.7356C45.9782 51.636 45.8543 51.5598 45.7187 51.5123C45.583 51.4647 45.4387 51.4469 45.2955 51.46ZM32.0191 56.29C31.6588 56.2792 31.3101 56.1608 31.0179 55.95V63.2C31.0179 63.4785 31.1286 63.7456 31.3258 63.9425C31.5229 64.1394 31.7903 64.25 32.0692 64.25C32.348 64.25 32.6154 64.1394 32.8125 63.9425C33.0097 63.7456 33.1205 63.4785 33.1205 63.2V56C32.7935 56.2111 32.4077 56.3127 32.0191 56.29ZM42.0315 49.29C41.8958 49.2832 41.7602 49.3041 41.6329 49.3513C41.5056 49.3985 41.3892 49.4711 41.2909 49.5646C41.1926 49.6582 41.1143 49.7707 41.0609 49.8954C41.0075 50.0201 40.98 50.1544 40.9802 50.29V55.86C40.9802 56.1385 41.0909 56.4056 41.2881 56.6025C41.4853 56.7994 41.7527 56.91 42.0315 56.91C42.3103 56.91 42.5777 56.7994 42.7749 56.6025C42.972 56.4056 43.0828 56.1385 43.0828 55.86V50.36C43.0908 50.2157 43.0673 50.0714 43.0141 49.937C42.9608 49.8026 42.8791 49.6813 42.7744 49.5815C42.6697 49.4817 42.5446 49.4057 42.4077 49.3589C42.2708 49.312 42.1254 49.2953 41.9814 49.31L42.0315 49.29ZM38.7074 51.43C38.3302 51.4274 37.9631 51.3087 37.6561 51.09V58.36C37.6561 58.6385 37.7668 58.9056 37.964 59.1025C38.1611 59.2994 38.4285 59.41 38.7074 59.41C38.9862 59.41 39.2536 59.2994 39.4507 59.1025C39.6479 58.9056 39.7587 58.6385 39.7587 58.36V51.1C39.441 51.3363 39.0533 51.4595 38.6573 51.45L38.7074 51.43ZM29.7463 57V36.69C29.7437 36.4424 29.6433 36.2059 29.4671 36.0318C29.2909 35.8577 29.053 35.76 28.8051 35.76H28.5849C28.337 35.76 28.0991 35.8577 27.9229 36.0318C27.7467 36.2059 27.6463 36.4424 27.6437 36.69V57C27.6437 57.2493 27.7429 57.4884 27.9194 57.6647C28.0959 57.841 28.3352 57.94 28.5849 57.94H28.8051C29.0547 57.94 29.2941 57.841 29.4706 57.6647C29.6471 57.4884 29.7463 57.2493 29.7463 57ZM32.1292 55.52H31.909C31.6594 55.52 31.42 55.421 31.2435 55.2447C31.067 55.0684 30.9678 54.8293 30.9678 54.58V39.11C30.9704 38.8624 31.0708 38.6259 31.247 38.4518C31.4232 38.2777 31.6611 38.18 31.909 38.18H32.1292C32.3771 38.18 32.615 38.2777 32.7912 38.4518C32.9674 38.6259 33.0678 38.8624 33.0704 39.11V54.6C33.0704 54.8493 32.9712 55.0884 32.7947 55.2647C32.6182 55.441 32.3788 55.54 32.1292 55.54V55.52ZM35.4433 53.14H35.213C34.9661 53.14 34.7293 53.042 34.5546 52.8676C34.38 52.6932 34.2819 52.4567 34.2819 52.21V41.51C34.2806 41.387 34.3037 41.265 34.3499 41.151C34.3961 41.0371 34.4645 40.9333 34.5511 40.8459C34.6377 40.7585 34.7408 40.6891 34.8544 40.6417C34.968 40.5944 35.0899 40.57 35.213 40.57H35.4433C35.6912 40.5726 35.928 40.6728 36.1024 40.8488C36.2767 41.0248 36.3745 41.2624 36.3745 41.51V52.21C36.3745 52.4567 36.2764 52.6932 36.1018 52.8676C35.9271 53.042 35.6903 53.14 35.4433 53.14ZM38.7574 50.69H38.5472C38.2993 50.69 38.0614 50.5924 37.8852 50.4182C37.709 50.2441 37.6086 50.0076 37.606 49.76V44C37.5978 43.8716 37.616 43.7429 37.6596 43.6218C37.7032 43.5008 37.7713 43.3899 37.8595 43.2962C37.9477 43.2025 38.0543 43.1278 38.1726 43.0768C38.2909 43.0259 38.4183 42.9997 38.5472 43H38.7674C39.0171 43 39.2564 43.099 39.4329 43.2753C39.6094 43.4516 39.7086 43.6907 39.7086 43.94V49.74C39.7099 49.8643 39.6866 49.9876 39.6399 50.1028C39.5932 50.218 39.524 50.3228 39.4365 50.4112C39.349 50.4995 39.2448 50.5697 39.1299 50.6175C39.0151 50.6654 38.8919 50.69 38.7674 50.69H38.7574ZM42.0815 48.54H41.8613C41.6117 48.54 41.3723 48.441 41.1958 48.2647C41.0193 48.0884 40.9201 47.8493 40.9201 47.6V46.11C40.9227 45.8624 41.0231 45.6259 41.1993 45.4518C41.3755 45.2777 41.6134 45.18 41.8613 45.18H42.0815C42.3294 45.18 42.5673 45.2777 42.7435 45.4518C42.9197 45.6259 43.0201 45.8624 43.0227 46.11V47.6C43.0227 47.8476 42.9249 48.0852 42.7506 48.2612C42.5762 48.4372 42.3394 48.5374 42.0915 48.54H42.0815Z" fill="#262B2C"></path></svg>