<svg xmlns="http://www.w3.org/2000/svg" width="179" height="100" viewBox="0 0 179 100" fill="none"><path d="M46.4872 41.39H48.4897V55.31H54.4971V57.31H46.4872V41.39ZM60.7348 41.39C61.923 41.39 63.0845 41.7419 64.0724 42.4012C65.0603 43.0605 65.8303 43.9976 66.285 45.0939C66.7396 46.1903 66.8586 47.3967 66.6268 48.5606C66.395 49.7244 65.8229 50.7935 64.9827 51.6327C64.1426 52.4718 63.0721 53.0432 61.9068 53.2747C60.7415 53.5062 59.5336 53.3874 58.4359 52.9333C57.3382 52.4792 56.3999 51.7101 55.7398 50.7234C55.0797 49.7367 54.7274 48.5767 54.7274 47.39C54.7274 46.6021 54.8828 45.8219 55.1847 45.0939C55.4866 44.366 55.9291 43.7045 56.4869 43.1474C57.0448 42.5902 57.707 42.1483 58.4359 41.8467C59.1647 41.5452 59.9459 41.39 60.7348 41.39ZM60.7348 51.39C61.5269 51.39 62.3012 51.1554 62.9599 50.7159C63.6185 50.2764 64.1318 49.6517 64.4349 48.9207C64.738 48.1898 64.8173 47.3856 64.6628 46.6096C64.5083 45.8337 64.1268 45.121 63.5667 44.5616C63.0066 44.0022 62.293 43.6212 61.5161 43.4669C60.7393 43.3125 59.934 43.3917 59.2022 43.6945C58.4704 43.9972 57.8449 44.5099 57.4048 45.1677C56.9648 45.8255 56.7299 46.5989 56.7299 47.39C56.7352 48.4474 57.1595 49.4597 57.91 50.2055C58.6605 50.9513 59.6761 51.37 60.7348 51.37V51.39ZM56.7299 55.33H64.7398V57.33H56.7299V55.33ZM82.3615 57.33H80.3591V55.9C79.0677 56.8028 77.53 57.288 75.9536 57.29C74.6095 57.299 73.2847 56.97 72.1013 56.3333C70.9178 55.6966 69.9139 54.7726 69.1819 53.6466C68.4499 52.5206 68.0134 51.2287 67.9127 49.89C67.8119 48.5512 68.0501 47.2087 68.6053 45.986C69.1604 44.7633 70.0148 43.6999 71.0896 42.8936C72.1643 42.0873 73.425 41.5641 74.7554 41.3723C76.0858 41.1804 77.4431 41.3261 78.7024 41.7958C79.9616 42.2655 81.0823 43.0441 81.9611 44.06L80.4892 45.37C79.8208 44.6236 78.976 44.0562 78.0318 43.7195C77.0876 43.3827 76.0741 43.2874 75.0835 43.4421C74.093 43.5967 73.1569 43.9966 72.3607 44.6051C71.5645 45.2137 70.9335 46.0116 70.5251 46.9261C70.1167 47.8406 69.944 48.8426 70.0227 49.8409C70.1014 50.8392 70.4289 51.8019 70.9756 52.6413C71.5222 53.4808 72.2705 54.1702 73.1522 54.6468C74.034 55.1234 75.0211 55.372 76.0237 55.37C76.8558 55.3717 77.6784 55.1939 78.4353 54.8487C79.1922 54.5035 79.8655 53.9991 80.4091 53.37H75.0025V51.37H82.3816L82.3615 57.33ZM89.7306 41.43C90.9188 41.43 92.0803 41.7819 93.0682 42.4412C94.0561 43.1005 94.8261 44.0376 95.2808 45.1339C95.7355 46.2303 95.8544 47.4367 95.6226 48.6006C95.3908 49.7644 94.8187 50.8335 93.9785 51.6727C93.1384 52.5118 92.068 53.0832 90.9026 53.3147C89.7373 53.5462 88.5294 53.4274 87.4317 52.9733C86.334 52.5192 85.3958 51.7501 84.7357 50.7634C84.0756 49.7767 83.7232 48.6167 83.7232 47.43C83.7179 46.637 83.8701 45.8509 84.1709 45.117C84.4716 44.3831 84.9151 43.716 85.4756 43.1544C86.0361 42.5927 86.7025 42.1476 87.4363 41.8448C88.1701 41.5419 88.9567 41.3873 89.7507 41.39L89.7306 41.43ZM89.7306 51.43C90.5228 51.43 91.2971 51.1954 91.9557 50.7559C92.6143 50.3164 93.1276 49.6917 93.4307 48.9607C93.7339 48.2298 93.8132 47.4256 93.6586 46.6497C93.5041 45.8737 93.1227 45.161 92.5626 44.6016C92.0025 44.0422 91.2889 43.6612 90.512 43.5069C89.7351 43.3525 88.9298 43.4317 88.198 43.7345C87.4662 44.0372 86.8407 44.5499 86.4007 45.2077C85.9606 45.8655 85.7257 46.6389 85.7257 47.43C85.7415 48.4839 86.1732 49.489 86.9269 50.2268C87.6806 50.9646 88.6954 51.3754 89.7507 51.37L89.7306 51.43ZM85.7257 55.37H93.7356V57.37H85.7257V55.37ZM97.8707 41.39H99.8732V57.29H97.8707V41.39ZM102.647 41.39H104.649C104.752 41.3791 104.856 41.3791 104.959 41.39C105.798 41.2991 106.647 41.3857 107.449 41.644C108.252 41.9024 108.992 42.3267 109.62 42.8894C110.248 43.4521 110.75 44.1406 111.093 44.91C111.437 45.6794 111.615 46.5125 111.615 47.355C111.615 48.1975 111.437 49.0306 111.093 49.8C110.75 50.5694 110.248 51.2579 109.62 51.8206C108.992 52.3833 108.252 52.8076 107.449 53.066C106.647 53.3243 105.798 53.4109 104.959 53.32H104.649V57.32H102.647V41.39ZM104.649 43.39V51.3H104.959C105.525 51.3752 106.1 51.3289 106.646 51.1641C107.193 50.9992 107.697 50.7198 108.127 50.3443C108.556 49.9689 108.9 49.5062 109.135 48.9872C109.371 48.4682 109.493 47.9049 109.493 47.335C109.493 46.7651 109.371 46.2018 109.135 45.6828C108.9 45.1638 108.556 44.7011 108.127 44.3257C107.697 43.9503 107.193 43.6708 106.646 43.506C106.1 43.3411 105.525 43.2948 104.959 43.37C104.85 43.3813 104.743 43.4048 104.639 43.44L104.649 43.39ZM119.077 42.54L117.595 43.71C117.339 43.4432 117.013 43.2548 116.654 43.167C116.295 43.0792 115.918 43.0956 115.568 43.2143C115.217 43.3329 114.909 43.549 114.677 43.8369C114.446 44.1249 114.301 44.4729 114.261 44.84V45C114.261 45.88 114.872 46.47 116.063 46.55C120.649 46.83 122.751 48.98 122.751 51.82V52C122.633 53.124 122.194 54.1905 121.486 55.0724C120.779 55.9544 119.832 56.6148 118.759 56.975C117.687 57.3353 116.533 57.3802 115.436 57.1046C114.338 56.8289 113.343 56.2442 112.569 55.42L114.101 54.24C114.457 54.6217 114.893 54.9213 115.377 55.1182C115.861 55.315 116.382 55.4044 116.904 55.38C117.869 55.4308 118.815 55.1075 119.547 54.4777C120.278 53.8478 120.737 52.9602 120.829 52V51.86C120.829 49.19 118.206 48.7 115.933 48.48C113.83 48.28 112.319 46.97 112.319 45.08V45C112.393 44.016 112.842 43.098 113.575 42.4356C114.307 41.7731 115.266 41.4167 116.253 41.44C116.777 41.4246 117.298 41.5189 117.782 41.717C118.267 41.9151 118.705 42.2125 119.067 42.59L119.077 42.54ZM130.591 55.26C133.084 55.26 135.057 52.57 135.057 49.26V41.26H137.059V49.26C137.059 53.66 134.176 57.21 130.631 57.21C127.087 57.21 124.203 53.66 124.203 49.26V41.26H126.206V49.26C126.126 52.62 128.098 55.31 130.581 55.31L130.591 55.26ZM152.428 57.26H150.426V47.36L145.81 53.36L141.194 47.36V57.29H139.192V41.39L145.8 50.08L152.408 41.39L152.428 57.26Z" fill="#262B2C"></path><path d="M36.8753 39.0001C36.8753 37.5573 36.3015 36.1736 35.28 35.1534C34.2586 34.1332 32.8732 33.5601 31.4286 33.5601C29.984 33.5601 28.5986 34.1332 27.5772 35.1534C26.5557 36.1736 25.9819 37.5573 25.9819 39.0001V55.4501L30.4674 58.6601V66.4801H32.3898V58.6601L36.8753 55.4501V39.0001ZM34.953 48.2001L32.3898 50.7601V48.3601L34.953 45.8001V48.2001ZM27.9443 45.8001L30.5075 48.3601V50.7601L27.9443 48.2001V45.8001ZM34.953 43.0801L31.4286 46.6001L27.9042 43.0001V40.6001L31.4286 44.1201L34.953 40.6001V43.0801ZM31.4286 35.4801C32.2037 35.4835 32.9563 35.7406 33.5712 36.212C34.186 36.6834 34.6292 37.3431 34.8328 38.0901L31.4286 41.4801L28.0244 38.0901C28.2206 37.3357 28.6606 36.667 29.2761 36.1879C29.8916 35.7087 30.6482 35.4459 31.4286 35.4401V35.4801ZM27.9042 54.4801V50.8801L30.4674 53.4401V56.3001L27.9042 54.4801ZM32.3898 56.3101V53.4401L34.953 50.8801V54.4701L32.3898 56.3101Z" fill="#262B2C"></path></svg>