<svg xmlns="http://www.w3.org/2000/svg" width="178" height="100" viewBox="0 0 178 100" fill="none"><path d="M88.8038 55.374H83.6774V41.686H88.8038V55.374ZM84.178 54.874H88.3031V42.186H84.178V54.874ZM95.9367 55.374H90.9134V41.686H101.408C102.912 41.5644 104.409 41.986 105.628 42.874C106.152 43.3533 106.559 43.9472 106.816 44.6093C107.073 45.2714 107.173 45.9838 107.109 46.691C107.183 47.913 106.794 49.1182 106.018 50.066C105.1 51.118 103.572 51.66 101.478 51.679C100.95 51.693 96.996 51.679 95.9397 51.679L95.9367 55.374ZM91.411 54.874H95.436V51.174H95.6874C95.7384 51.174 100.872 51.19 101.466 51.174C103.417 51.157 104.82 50.674 105.64 49.731C106.33 48.8734 106.673 47.7881 106.601 46.69C106.663 46.0564 106.577 45.4171 106.351 44.8217C106.126 44.2264 105.766 43.691 105.299 43.257C104.17 42.4471 102.787 42.0669 101.401 42.185H91.414L91.411 54.874ZM100.345 48.604H95.402V44.878H100.378C100.731 44.8293 101.09 44.8704 101.423 44.9975C101.755 45.1246 102.05 45.3336 102.281 45.605C102.489 45.9519 102.588 46.354 102.563 46.758C102.582 47.1331 102.501 47.5065 102.328 47.84C102.09 48.1259 101.783 48.3459 101.436 48.479C101.089 48.6121 100.713 48.6538 100.345 48.6V48.604ZM95.9026 48.104H100.345C101.166 48.104 101.675 47.933 101.9 47.581C102.024 47.3251 102.08 47.0417 102.063 46.758C102.085 46.46 102.021 46.1621 101.877 45.9L101.871 45.891C101.633 45.541 101.159 45.378 100.378 45.378H95.9026V48.104ZM116.245 55.576C111.749 55.576 109.066 54.461 108.044 52.168C107.877 51.7251 107.763 51.2638 107.705 50.794L107.661 50.506H113.01L113.045 50.716C113.086 50.9292 113.177 51.1299 113.309 51.302C113.521 51.557 114.225 51.985 116.564 51.985C119.376 51.985 119.376 51.492 119.376 51.227C119.376 50.78 119.05 50.627 116.758 50.383L116.322 50.342C115.459 50.261 114.368 50.158 113.869 50.115C109.664 49.735 107.786 48.43 107.786 45.885C107.786 43.212 110.981 41.485 115.927 41.485C119.961 41.485 122.56 42.547 123.65 44.644C123.909 45.1318 124.083 45.66 124.164 46.206L124.199 46.487H118.844L118.822 46.261C118.801 46.0844 118.726 45.9187 118.606 45.787C118.406 45.519 117.773 45.076 115.808 45.076C113.396 45.076 113.064 45.384 113.064 45.716C113.064 46.159 113.826 46.316 116.268 46.577C117.286 46.66 118.923 46.828 119.484 46.896C123.009 47.278 124.582 48.551 124.582 51.025C124.583 53.1 123.137 55.576 116.245 55.576ZM108.246 51.006C108.296 51.3358 108.382 51.659 108.503 51.97C109.435 54.059 111.968 55.076 116.245 55.076C119.821 55.076 124.086 54.376 124.086 51.025C124.086 48.832 122.694 47.746 119.431 47.393C118.87 47.325 117.243 47.158 116.227 47.074C113.624 46.792 112.565 46.642 112.565 45.716C112.565 44.758 113.706 44.576 115.81 44.576C117.474 44.576 118.548 44.876 119.003 45.481C119.128 45.63 119.222 45.8019 119.28 45.987H123.619C123.532 45.6002 123.394 45.2267 123.209 44.876C122.207 42.957 119.761 41.985 115.929 41.985C111.288 41.985 108.289 43.516 108.289 45.885C108.289 48.145 109.972 49.261 113.915 49.617C114.416 49.66 115.506 49.763 116.371 49.845L116.81 49.886C118.939 50.11 119.879 50.25 119.879 51.227C119.879 52.279 118.664 52.485 116.566 52.485C114.626 52.485 113.4 52.194 112.927 51.621C112.781 51.4383 112.671 51.2296 112.602 51.006H108.246ZM134.094 55.559C128.868 55.559 125.984 53.448 125.984 49.614V41.686H131.042V49.614C131.042 50.929 132.221 51.683 134.274 51.683C136.237 51.683 137.455 50.896 137.455 49.631V41.686H142.462V50.034C142.467 53.545 139.414 55.559 134.091 55.559H134.094ZM126.485 42.186V49.614C126.485 54.352 131.249 55.059 134.094 55.059C137.036 55.059 141.969 54.406 141.969 50.034V42.186H137.964V49.631C137.964 51.181 136.518 52.183 134.283 52.183C131.946 52.183 130.55 51.223 130.55 49.614V42.186H126.485ZM163.676 55.374H158.902V49.194L156.195 55.374H152.031L149.351 49.206V55.374H144.56V41.686H150.862L154.136 49.233L157.569 41.686H163.682L163.676 55.374ZM159.403 54.874H163.176V42.186H157.887L154.12 50.465L150.53 42.186H145.057V54.874H148.847V46.8L152.351 54.877H155.855L159.397 46.812L159.403 54.874ZM19.0778 41.936H14.5181V55.124H27.1178V51.613H19.0778V41.936ZM36.3213 41.636C30.5011 41.636 27.4402 44.391 27.4402 48.436C27.4402 53.006 30.6533 55.324 36.3213 55.324C42.5611 55.324 45.1854 52.636 45.1854 48.436C45.1854 44.171 42.2247 41.634 36.3213 41.634V41.636ZM36.3043 45.063C36.7005 45.0611 37.0965 45.0842 37.4898 45.132L32.3924 50.223C32.1512 49.6781 32.0336 49.0866 32.048 48.491C32.048 46.422 33.0913 45.061 36.3043 45.061V45.063ZM36.3213 51.951C35.9396 51.9527 35.5581 51.9313 35.1789 51.887L40.2853 46.787C40.5175 47.3229 40.6286 47.9033 40.6107 48.487C40.6107 50.5 39.6495 51.949 36.3213 51.949V51.951ZM54.2196 50.151H58.9125C58.8434 50.4763 58.6995 50.781 58.492 51.041C57.5191 51.8326 56.2774 52.2178 55.0266 52.116C54.3971 52.1833 53.7604 52.1146 53.1598 51.9146C52.5591 51.7146 52.0085 51.3881 51.5453 50.957C51.0709 50.2619 50.8454 49.4271 50.9055 48.588C50.8288 47.7087 51.0739 46.8315 51.5954 46.119C52.2512 45.379 53.3616 45.06 54.9936 45.06C56.032 44.9741 57.0691 45.2405 57.9373 45.816C58.2109 46.0331 58.4155 46.3249 58.526 46.656H62.8784C62.8468 46.1105 62.7155 45.5753 62.491 45.077C61.4487 42.96 59.0256 41.7 54.9055 41.7C51.322 41.7 48.917 42.792 47.5884 44.439C46.7109 45.6283 46.2604 47.0784 46.3098 48.555C46.253 50.0649 46.6918 51.5521 47.5593 52.79C48.872 54.49 51.2099 55.326 54.0194 55.326C55.8873 55.4561 57.7423 54.9336 59.2669 53.848L59.3851 55.124H63.0006V47.312H54.2196V50.151ZM73.2624 41.633C67.4431 41.633 64.3813 44.388 64.3813 48.433C64.3813 53.003 67.5933 55.321 73.2624 55.321C79.5032 55.321 82.1274 52.633 82.1274 48.433C82.1274 44.171 79.1668 41.634 73.2624 41.634V41.633ZM73.2464 45.06C73.6322 45.0588 74.0177 45.0809 74.4008 45.126L69.3235 50.2C69.0898 49.6611 68.9761 49.078 68.9901 48.491C68.9861 46.422 70.0334 45.061 73.2464 45.061V45.06ZM73.2624 51.948C72.8705 51.9496 72.479 51.9269 72.0899 51.88L77.2133 46.762C77.4543 47.305 77.5696 47.8953 77.5507 48.489C77.5527 50.5 76.5955 51.949 73.2624 51.949V51.948Z" fill="#262B2C"></path></svg>