<svg xmlns="http://www.w3.org/2000/svg" width="179" height="100" viewBox="0 0 179 100" fill="none"><path d="M32.7809 62.825H58.4629V37.175H32.7809V62.825ZM53.5197 47.5321H48.093V42.112H53.5197V47.5321ZM37.723 42.112H43.1528V52.468H53.5197V57.888H37.723V42.112ZM75.1868 37.175C72.6471 37.175 70.1644 37.9272 68.0527 39.3365C65.941 40.7457 64.2951 42.7487 63.3232 45.0921C62.3513 47.4356 62.097 50.0143 62.5925 52.5021C63.088 54.9899 64.311 57.2751 66.1068 59.0687C67.9026 60.8623 70.1907 62.0838 72.6816 62.5786C75.1725 63.0735 77.7544 62.8195 80.1008 61.8488C82.4472 60.8781 84.4527 59.2343 85.8637 57.1252C87.2747 55.0162 88.0278 52.5366 88.0278 50C88.0238 46.5999 86.6696 43.3401 84.2623 40.9358C81.8551 38.5315 78.5912 37.179 75.1868 37.175ZM75.1868 57.888C73.6247 57.888 72.0978 57.4254 70.799 56.5587C69.5002 55.6919 68.4879 54.46 67.8901 53.0187C67.2923 51.5773 67.1359 49.9913 67.4407 48.4612C67.7454 46.9311 68.4976 45.5255 69.6021 44.4224C70.7067 43.3192 72.1139 42.568 73.646 42.2636C75.178 41.9593 76.766 42.1155 78.2091 42.7125C79.6523 43.3095 80.8858 44.3205 81.7536 45.6177C82.6214 46.9149 83.0846 48.4399 83.0846 50C83.0814 52.0911 82.2483 54.0956 80.7679 55.5742C79.2874 57.0528 77.2804 57.8849 75.1868 57.888ZM133.979 37.175C131.439 37.1749 128.957 37.9269 126.845 39.336C124.733 40.7451 123.087 42.748 122.115 45.0914C121.143 47.4349 120.888 50.0136 121.384 52.5015C121.879 54.9893 123.102 57.2746 124.898 59.0683C126.694 60.862 128.982 62.0836 131.473 62.5785C133.964 63.0735 136.545 62.8196 138.892 61.8489C141.238 60.8782 143.244 59.2344 144.655 57.1253C146.066 55.0163 146.819 52.5366 146.819 50C146.815 46.6 145.461 43.3404 143.054 40.9361C140.647 38.5319 137.383 37.1793 133.979 37.175ZM133.979 57.888C132.417 57.8882 130.89 57.4258 129.591 56.5592C128.292 55.6925 127.28 54.4607 126.682 53.0193C126.084 51.578 125.927 49.992 126.232 48.4618C126.536 46.9316 127.289 45.526 128.393 44.4227C129.498 43.3195 130.905 42.5681 132.437 42.2637C133.969 41.9592 135.557 42.1154 137 42.7124C138.443 43.3094 139.677 44.3204 140.545 45.6176C141.413 46.9148 141.876 48.4399 141.876 50C141.873 52.0909 141.04 54.0953 139.56 55.5738C138.079 57.0524 136.073 57.8846 133.979 57.888ZM104.582 37.175C102.043 37.175 99.56 37.9272 97.4483 39.3365C95.3366 40.7457 93.6908 42.7487 92.7189 45.0921C91.747 47.4356 91.4927 50.0143 91.9882 52.5021C92.4836 54.9899 93.7066 57.2751 95.5025 59.0687C97.2983 60.8623 99.5864 62.0838 102.077 62.5786C104.568 63.0735 107.15 62.8195 109.496 61.8488C111.843 60.8781 113.848 59.2343 115.259 57.1252C116.67 55.0162 117.423 52.5366 117.423 50C117.419 46.5999 116.065 43.3401 113.658 40.9358C111.251 38.5315 107.987 37.179 104.582 37.175ZM104.582 57.888C103.127 57.8888 101.7 57.4879 100.458 56.7296C99.2166 55.9713 98.2089 54.8851 97.5464 53.5909C96.8839 52.2967 96.5923 50.8449 96.7038 49.3956C96.8153 47.9464 97.3256 46.5561 98.1784 45.3782C99.0311 44.2003 100.193 43.2807 101.536 42.7208C102.879 42.1608 104.351 41.9825 105.789 42.2053C107.227 42.4281 108.576 43.0435 109.686 43.9835C110.796 44.9234 111.624 46.1515 112.08 47.5321H104.582V52.468H112.08C111.558 54.0434 110.553 55.4147 109.208 56.3876C107.862 57.3604 106.244 57.8854 104.582 57.888Z" fill="#262B2C"></path></svg>