<svg xmlns="http://www.w3.org/2000/svg" width="179" height="100" viewBox="0 0 179 100" fill="none"><path d="M55.9885 42.25H58.9922V56.7H55.9885V42.25Z" fill="#262B2C"></path><path d="M60.6743 51.75C60.6743 50.7104 60.9833 49.6942 61.5623 48.8302C62.1412 47.9662 62.9639 47.2933 63.9262 46.8969C64.8884 46.5004 65.9469 46.3982 66.9673 46.6032C67.9878 46.8082 68.9244 47.3112 69.6583 48.0485C70.3922 48.7857 70.8905 49.724 71.0899 50.7443C71.2893 51.7647 71.1809 52.8212 70.7784 53.78C70.376 54.7388 69.6976 55.5566 68.8292 56.1299C67.9608 56.7031 66.9416 57.006 65.9007 57C65.2103 57.0054 64.5258 56.8731 63.8873 56.6108C63.2488 56.3485 62.6691 55.9615 62.1824 55.4725C61.6956 54.9835 61.3114 54.4024 61.0525 53.7632C60.7935 53.124 60.6649 52.4395 60.6743 51.75ZM68.2036 51.75C68.1917 51.3018 68.0479 50.8671 67.79 50.5001C67.5321 50.1331 67.1715 49.8503 66.7535 49.6869C66.3355 49.5235 65.8785 49.4868 65.4397 49.5814C65.0009 49.676 64.5998 49.8978 64.2865 50.2189C63.9732 50.54 63.7617 50.9463 63.6784 51.3868C63.5951 51.8274 63.6436 52.2827 63.818 52.6959C63.9924 53.109 64.2849 53.4616 64.6589 53.7096C65.0329 53.9575 65.4718 54.0899 65.9207 54.09C66.2264 54.096 66.53 54.0389 66.8125 53.9224C67.0951 53.8058 67.3505 53.6323 67.5629 53.4127C67.7752 53.1931 67.94 52.9321 68.0468 52.646C68.1536 52.3599 68.2001 52.0549 68.1835 51.75H68.2036Z" fill="#262B2C"></path><path d="M83.0119 46.8V56.21C83.0119 59.53 80.4087 60.94 77.7754 60.94C76.8466 61.0161 75.9149 60.8318 75.0853 60.4078C74.2557 59.9838 73.5611 59.3369 73.0796 58.54L75.6127 57.08C75.818 57.4933 76.1445 57.8344 76.5488 58.0577C76.953 58.281 77.4158 58.376 77.8755 58.33C78.1684 58.366 78.4655 58.337 78.7458 58.2449C79.0261 58.1529 79.2826 58.0001 79.4969 57.7976C79.7111 57.595 79.878 57.3477 79.9854 57.0732C80.0928 56.7988 80.1382 56.504 80.1183 56.21V55.3C79.7688 55.7233 79.3252 56.0593 78.823 56.2815C78.3207 56.5037 77.7734 56.6059 77.2247 56.58C75.897 56.58 74.6237 56.0532 73.6848 55.1155C72.746 54.1778 72.2185 52.9061 72.2185 51.58C72.2185 50.2539 72.746 48.9821 73.6848 48.0445C74.6237 47.1068 75.897 46.58 77.2247 46.58C77.7734 46.5541 78.3207 46.6563 78.823 46.8785C79.3252 47.1006 79.7688 47.4367 80.1183 47.86V46.86L83.0119 46.8ZM80.1183 51.55C80.1383 51.0716 80.0145 50.5981 79.7629 50.1905C79.5113 49.7829 79.1433 49.4598 78.7064 49.2627C78.2694 49.0656 77.7835 49.0036 77.3109 49.0846C76.8384 49.1656 76.4009 49.3859 76.0548 49.7172C75.7086 50.0485 75.4696 50.4757 75.3685 50.9438C75.2674 51.4118 75.3087 51.8994 75.4873 52.3438C75.6659 52.7882 75.9734 53.1691 76.3705 53.4375C76.7675 53.7059 77.2359 53.8496 77.7153 53.85C78.0282 53.8725 78.3423 53.8292 78.6373 53.723C78.9324 53.6167 79.2018 53.4498 79.4283 53.233C79.6547 53.0163 79.8331 52.7545 79.952 52.4646C80.0709 52.1747 80.1275 51.8631 80.1183 51.55Z" fill="#262B2C"></path><path d="M84.704 51.75C84.704 50.7112 85.0125 49.6958 85.5905 48.8322C86.1686 47.9686 86.9901 47.2957 87.9512 46.8987C88.9123 46.5016 89.9697 46.3982 90.9896 46.6016C92.0096 46.805 92.9462 47.306 93.6809 48.0412C94.4156 48.7765 94.9155 49.7129 95.1172 50.7319C95.3189 51.751 95.2133 52.8069 94.8139 53.766C94.4146 54.7252 93.7393 55.5444 92.8735 56.1201C92.0078 56.6957 90.9905 57.002 89.9504 57C89.2587 57.0067 88.5727 56.8754 87.9325 56.6138C87.2922 56.3522 86.7108 55.9656 86.2221 55.4766C85.7334 54.9876 85.3475 54.4061 85.0868 53.7662C84.8261 53.1263 84.6959 52.4408 84.704 51.75ZM92.2333 51.75C92.2214 51.3014 92.0773 50.8662 91.819 50.499C91.5606 50.1319 91.1995 49.849 90.7809 49.6859C90.3623 49.5228 89.9048 49.4867 89.4657 49.5822C89.0267 49.6776 88.6256 49.9004 88.3127 50.2225C87.9998 50.5446 87.7891 50.9518 87.7069 51.393C87.6247 51.8342 87.6747 52.2898 87.8507 52.7027C88.0266 53.1157 88.3206 53.4676 88.696 53.7144C89.0713 53.9611 89.5111 54.0918 89.9605 54.09C90.2661 54.0959 90.5697 54.0389 90.8522 53.9223C91.1348 53.8058 91.3902 53.6323 91.6026 53.4127C91.815 53.193 91.9797 52.932 92.0865 52.646C92.1933 52.3599 92.2398 52.0549 92.2233 51.75H92.2333Z" fill="#262B2C"></path><path d="M96.5886 44.15C96.5886 43.7979 96.6932 43.4538 96.889 43.1611C97.0848 42.8684 97.3632 42.6402 97.6888 42.5055C98.0145 42.3708 98.3728 42.3355 98.7185 42.4042C99.0642 42.4729 99.3818 42.6424 99.6311 42.8913C99.8803 43.1403 100.05 43.4574 100.119 43.8027C100.188 44.148 100.152 44.5059 100.017 44.8312C99.8825 45.1564 99.6541 45.4344 99.361 45.63C99.0679 45.8256 98.7233 45.93 98.3708 45.93C97.8998 45.9248 97.4495 45.7356 97.1164 45.4029C96.7833 45.0702 96.5939 44.6205 96.5886 44.15ZM96.879 46.8H99.8827V56.7H96.879V46.8Z" fill="#262B2C"></path><path d="M112.739 51.75C112.772 52.4084 112.675 53.0669 112.453 53.6877C112.231 54.3085 111.888 54.8793 111.444 55.3673C111 55.8552 110.464 56.2507 109.867 56.5309C109.269 56.8111 108.622 56.9705 107.963 57C107.403 57.0372 106.842 56.9476 106.322 56.7381C105.802 56.5286 105.336 56.2045 104.959 55.79V60.68H101.955V46.8H104.959V47.73C105.337 47.3167 105.803 46.994 106.323 46.7862C106.843 46.5784 107.404 46.4908 107.963 46.53C108.619 46.5595 109.264 46.718 109.859 46.9963C110.455 47.2746 110.99 47.6673 111.433 48.1521C111.877 48.6368 112.22 49.204 112.444 49.8213C112.668 50.4387 112.768 51.094 112.739 51.75ZM109.735 51.75C109.723 51.2855 109.574 50.8349 109.307 50.4546C109.04 50.0742 108.666 49.7811 108.233 49.612C107.8 49.4428 107.326 49.4051 106.872 49.5037C106.417 49.6022 106.002 49.8326 105.678 50.1659C105.353 50.4992 105.135 50.9206 105.05 51.3773C104.965 51.8341 105.016 52.3058 105.198 52.7333C105.38 53.1609 105.684 53.5253 106.073 53.7809C106.461 54.0364 106.917 54.1718 107.382 54.17C107.701 54.1835 108.018 54.1296 108.315 54.0118C108.611 53.894 108.879 53.7149 109.101 53.4864C109.323 53.2579 109.495 52.9851 109.604 52.6859C109.713 52.3866 109.758 52.0677 109.735 51.75Z" fill="#262B2C"></path><path d="M121.88 53.73C121.88 56.01 119.877 56.98 117.755 56.98C116.889 57.0578 116.02 56.8745 115.26 56.4538C114.499 56.0331 113.883 55.3943 113.49 54.62L116.073 53.16C116.175 53.5168 116.397 53.8277 116.701 54.0407C117.006 54.2537 117.374 54.3558 117.745 54.33C118.456 54.33 118.816 54.11 118.816 53.71C118.816 52.62 113.94 53.2 113.94 49.77C113.94 47.61 115.762 46.53 117.825 46.53C118.609 46.4949 119.388 46.6726 120.079 47.0441C120.77 47.4156 121.347 47.9671 121.75 48.64L119.167 50C119.052 49.742 118.866 49.5225 118.63 49.3682C118.393 49.2138 118.117 49.131 117.835 49.13C117.314 49.13 117.004 49.33 117.004 49.68C117.004 50.82 121.88 50.07 121.88 53.73Z" fill="#262B2C"></path><path d="M132.763 46.8V56.7001H129.76V55.7701C129.418 56.1817 128.985 56.5075 128.495 56.7212C128.004 56.9348 127.47 57.0303 126.936 57.0001C124.934 57.0001 123.222 55.5701 123.222 52.9001V46.8H126.225V52.4501C126.202 52.6863 126.23 52.9248 126.307 53.1491C126.385 53.3735 126.511 53.5783 126.675 53.7494C126.84 53.9206 127.04 54.054 127.261 54.1404C127.483 54.2268 127.72 54.2643 127.957 54.2501C129.039 54.2501 129.8 53.6101 129.8 52.2501V46.8H132.763Z" fill="#262B2C"></path><path d="M149.784 50.62V56.7H146.781V50.88C146.781 49.88 146.31 49.26 145.359 49.26C144.408 49.26 143.807 49.95 143.807 51.12V56.7H140.803V50.88C140.803 49.88 140.333 49.26 139.382 49.26C138.43 49.26 137.83 49.95 137.83 51.12V56.7H134.826V46.8H137.83V47.71C138.141 47.3079 138.547 46.9895 139.012 46.7835C139.477 46.5775 139.986 46.4904 140.493 46.53C141.001 46.5035 141.507 46.6094 141.962 46.8373C142.416 47.0652 142.804 47.4073 143.086 47.83C143.416 47.3884 143.853 47.0376 144.355 46.8102C144.858 46.5829 145.41 46.4865 145.96 46.53C148.303 46.53 149.784 48.15 149.784 50.62Z" fill="#262B2C"></path><path d="M38.0963 39.65V35.4H24.6798V64.6H38.0963V60.35C35.348 60.35 32.7121 59.2596 30.7687 57.3186C28.8253 55.3776 27.7335 52.745 27.7335 50C27.7335 47.255 28.8253 44.6225 30.7687 42.6815C32.7121 40.7405 35.348 39.65 38.0963 39.65Z" fill="#262B2C"></path><path d="M38.0964 39.65V60.35C40.8447 60.35 43.4806 59.2596 45.424 57.3186C47.3674 55.3776 48.4592 52.745 48.4592 50C48.4592 47.255 47.3674 44.6225 45.424 42.6815C43.4806 40.7405 40.8447 39.65 38.0964 39.65Z" fill="#262B2C"></path><path d="M152.308 46.74C153.524 46.74 154.51 45.755 154.51 44.54C154.51 43.3249 153.524 42.34 152.308 42.34C151.091 42.34 150.105 43.3249 150.105 44.54C150.105 45.755 151.091 46.74 152.308 46.74Z" fill="#262B2C"></path></svg>