<svg xmlns="http://www.w3.org/2000/svg" width="104" height="104" viewBox="0 0 104 104" fill="none"><circle cx="52" cy="52" r="51.5" fill="white" stroke="#6E7051"></circle><circle cx="52" cy="52" r="32" fill="#6E7051"></circle><path d="M48.2792 52.3075C48.4475 53.0365 47.6478 53.5906 47.0257 53.2017L44.904 51.8759L42.2547 56.1156C41.5628 57.2226 42.3625 58.6667 43.6673 58.6667H46.375C46.7201 58.6667 47 58.9466 47 59.2917V61.3751C47 61.7202 46.7201 62.0001 46.375 62.0001H43.6726C39.749 62.0001 37.3549 57.6747 39.4327 54.3501L42.0796 50.1111L39.9585 48.7857C39.3293 48.3926 39.4916 47.4336 40.2127 47.2671L45.9542 45.9416C46.4026 45.838 46.85 46.1176 46.9536 46.566L48.2792 52.3075V52.3075ZM53.4126 42.7807L55.563 46.2222L53.4412 47.5481C52.8135 47.9401 52.9724 48.8998 53.6953 49.0667L59.4368 50.3922C59.8884 50.4963 60.3334 50.2132 60.4362 49.7677L61.7617 44.0262C61.9282 43.3052 61.1372 42.7388 60.5082 43.1321L58.3891 44.4562L56.24 41.0145C54.2858 37.8878 49.7187 37.8806 47.76 41.0145L46.8244 42.5127C46.6416 42.8054 46.7307 43.1909 47.0234 43.3738L48.79 44.4777C49.0827 44.6606 49.4683 44.5716 49.6512 44.2789L50.5867 42.7819C51.2488 41.7224 52.7728 41.7571 53.4126 42.7807V42.7807ZM64.567 54.3501L63.134 52.055C62.9511 51.7622 62.5654 51.6731 62.2726 51.856L60.509 52.958C60.2163 53.141 60.1273 53.5265 60.3102 53.8193L61.7458 56.1168C62.4363 57.2215 61.6387 58.6668 60.3325 58.6668H55.3333V56.1678C55.3333 55.4275 54.4353 55.0541 53.9108 55.5786L49.7441 59.7442C49.4186 60.0696 49.4186 60.5973 49.7441 60.9227L53.9108 65.0888C54.4317 65.6098 55.3333 65.2448 55.3333 64.4995V62.0001H60.327C64.2476 62.0001 66.6466 57.6773 64.567 54.3501Z" fill="white"></path><circle cx="94" cy="52" r="2" fill="#6E7051"></circle><circle cx="10" cy="52" r="2" fill="#6E7051"></circle><path d="M16.9335 39.1079L13.3553 39.7231L13.1943 40.188L16.1993 41.2284L15.528 43.1675L7.56759 40.4115L8.69432 37.157C8.91156 36.5295 9.20569 36.0345 9.57673 35.6719C9.95038 35.3018 10.3679 35.0739 10.8294 34.9881C11.2833 34.8998 11.7446 34.9367 12.2133 35.099C12.7425 35.2822 13.1626 35.597 13.4737 36.0433C13.7874 36.4821 13.9304 37.0226 13.9028 37.6649L17.6912 36.9193L16.9335 39.1079ZM11.8222 39.713L12.2384 38.511C12.3614 38.1557 12.3661 37.861 12.2524 37.6269C12.1413 37.3853 11.927 37.2095 11.6095 37.0996C11.3071 36.9949 11.0376 37.0031 10.8009 37.1244C10.5668 37.2381 10.3883 37.4726 10.2653 37.8279L9.84914 39.0299L11.8222 39.713Z" fill="#6E7051"></path><path d="M16.7247 25.6501L18.0646 26.7028L19.7623 24.542L21.0079 25.5206L19.3101 27.6815L20.7633 28.8232L22.6834 26.3793L23.9761 27.395L20.7882 31.4524L14.1642 26.2479L17.3521 22.1905L18.6449 23.2062L16.7247 25.6501Z" fill="#6E7051"></path><path d="M26.3052 19.2521C25.8734 18.5409 25.6433 17.8149 25.6148 17.0742C25.5822 16.3266 25.746 15.6329 26.1063 14.9931C26.4692 14.3422 26.9995 13.8051 27.697 13.3817C28.5519 12.8628 29.4206 12.6443 30.3032 12.7262C31.1859 12.8081 31.9664 13.1765 32.6448 13.8316L30.7163 15.0023C30.39 14.7885 30.0458 14.684 29.6836 14.6886C29.3282 14.689 28.983 14.791 28.6479 14.9944C28.1077 15.3223 27.7841 15.7761 27.6774 16.3556C27.5706 16.9351 27.7082 17.5395 28.0901 18.1686C28.472 18.7978 28.9446 19.1987 29.508 19.3715C30.0715 19.5442 30.6233 19.4666 31.1635 19.1386C31.4986 18.9352 31.7484 18.676 31.9128 18.361C32.084 18.0418 32.1501 17.6881 32.1111 17.3001L34.0396 16.1294C34.3076 17.0336 34.2744 17.896 33.9397 18.7168C33.6009 19.5308 33.0041 20.1973 32.1492 20.7162C31.4517 21.1396 30.7325 21.3655 29.9918 21.3941C29.2537 21.4116 28.5627 21.2368 27.9187 20.8696C27.2748 20.5025 26.7369 19.9633 26.3052 19.2521Z" fill="#6E7051"></path><path d="M47.8967 6.68178L45.9146 12.7137L46.3572 15.4623L44.3313 15.7885L43.8887 13.0399L40.113 7.93534L42.4114 7.56519L44.5836 10.7888L45.622 7.04812L47.8967 6.68178Z" fill="#6E7051"></path><path d="M56.5218 10.8754C56.7084 10.0646 57.0498 9.38379 57.546 8.83304C58.0439 8.27449 58.6451 7.89158 59.3496 7.68429C60.0636 7.471 60.8182 7.45587 61.6134 7.63889C62.588 7.86317 63.3629 8.31243 63.9384 8.98667C64.5138 9.66091 64.8162 10.4693 64.8455 11.4119L62.647 10.9059C62.5623 10.5252 62.3885 10.2102 62.1257 9.96093C61.8707 9.71344 61.5522 9.54573 61.1702 9.45781C60.5543 9.31606 60.006 9.41562 59.5253 9.75649C59.0446 10.0974 58.7217 10.6264 58.5566 11.3437C58.3916 12.0609 58.4507 12.6779 58.734 13.1946C59.0173 13.7113 59.467 14.0406 60.0829 14.1823C60.4649 14.2702 60.8246 14.2586 61.1622 14.1475C61.5075 14.0382 61.8015 13.8308 62.0441 13.5255L64.2427 14.0314C63.8042 14.8664 63.1789 15.4613 62.3666 15.8161C61.5561 16.1632 60.6636 16.2246 59.6891 16.0003C58.8939 15.8173 58.2209 15.4777 57.6701 14.9815C57.129 14.4794 56.7557 13.8722 56.5502 13.1599C56.3447 12.4477 56.3352 11.6862 56.5218 10.8754Z" fill="#6E7051"></path><path d="M72.5387 19.5562L74.7985 21.0117L73.9409 22.3434L69.9558 19.7768L74.5171 12.6946L76.2423 13.8057L72.5387 19.5562Z" fill="#6E7051"></path><path d="M85.1023 23.6446L83.7909 24.7327L85.5456 26.8476L84.3265 27.859L82.5719 25.7441L81.1496 26.9241L83.1342 29.316L81.8689 30.3657L78.5742 26.3946L85.0573 21.0157L88.3521 24.9869L87.0869 26.0366L85.1023 23.6446Z" fill="#6E7051"></path><path d="M94.4074 36.1981C94.709 37.0333 94.8071 37.823 94.7016 38.5671C94.5961 39.3112 94.3035 39.9612 93.8239 40.5172C93.3545 41.078 92.7285 41.4997 91.946 41.7824C91.171 42.0623 90.42 42.1379 89.6931 42.0092C88.9688 41.888 88.327 41.5712 87.7677 41.0587C87.2111 40.5538 86.7833 39.8875 86.4843 39.0598L85.4122 36.0915L93.3353 33.2298L94.4074 36.1981ZM88.1099 38.3324C88.3735 39.0622 88.7781 39.5583 89.3236 39.8205C89.8691 40.0828 90.5068 40.0822 91.2367 39.8185C91.9665 39.5549 92.4613 39.1466 92.7208 38.5935C92.9804 38.0405 92.9783 37.399 92.7147 36.6692L92.3845 35.755L87.7797 37.4182L88.1099 38.3324Z" fill="#6E7051"></path><path d="M86.5103 64.4473L90.0885 63.8321L90.2494 63.3672L87.2444 62.3268L87.9158 60.3877L95.8762 63.1437L94.7494 66.3982C94.5322 67.0257 94.2381 67.5207 93.867 67.8832C93.4934 68.2534 93.0758 68.4813 92.6144 68.567C92.1605 68.6554 91.6992 68.6185 91.2305 68.4562C90.7013 68.273 90.2812 67.9582 89.9701 67.5119C89.6564 67.0731 89.5133 66.5325 89.541 65.8902L85.7526 66.6359L86.5103 64.4473ZM91.6215 63.8422L91.2054 65.0442C91.0824 65.3995 91.0777 65.6942 91.1914 65.9283C91.3024 66.1699 91.5167 66.3457 91.8342 66.4556C92.1366 66.5603 92.4061 66.552 92.6428 66.4308C92.8769 66.3171 93.0555 66.0826 93.1785 65.7273L93.5946 64.5253L91.6215 63.8422Z" fill="#6E7051"></path><path d="M86.7191 77.9051L85.3792 76.8523L83.6814 79.0132L82.4359 78.0345L84.1336 75.8737L82.6805 74.732L80.7603 77.1759L79.4676 76.1602L82.6555 72.1028L89.2795 77.3072L86.0916 81.3647L84.7989 80.349L86.7191 77.9051Z" fill="#6E7051"></path><path d="M77.1386 84.3031C77.5703 85.0143 77.8004 85.7403 77.829 86.481C77.8616 87.2286 77.6978 87.9223 77.3375 88.5621C76.9745 89.213 76.4443 89.7501 75.7467 90.1735C74.8919 90.6924 74.0232 90.9109 73.1405 90.829C72.2579 90.7471 71.4774 90.3786 70.799 89.7236L72.7275 88.5529C73.0538 88.7666 73.398 88.8712 73.7602 88.8666C74.1155 88.8661 74.4608 88.7642 74.7959 88.5608C75.3361 88.2329 75.6596 87.7791 75.7664 87.1996C75.8732 86.62 75.7356 86.0157 75.3537 85.3865C74.9718 84.7574 74.4991 84.3564 73.9357 84.1837C73.3723 84.011 72.8205 84.0886 72.2802 84.4166C71.9451 84.62 71.6954 84.8792 71.531 85.1942C71.3598 85.5134 71.2937 85.867 71.3327 86.2551L69.4042 87.4258C69.1361 86.5216 69.1694 85.6591 69.5041 84.8383C69.8429 84.0244 70.4397 83.3579 71.2946 82.839C71.9921 82.4156 72.7112 82.1896 73.452 82.1611C74.19 82.1436 74.881 82.3184 75.525 82.6855C76.169 83.0527 76.7069 83.5918 77.1386 84.3031Z" fill="#6E7051"></path><path d="M55.547 96.8734L57.5292 90.8415L57.0865 88.0929L59.1124 87.7666L59.5551 90.5152L63.3308 95.6198L61.0324 95.99L58.8602 92.7664L57.8217 96.5071L55.547 96.8734Z" fill="#6E7051"></path><path d="M46.9219 92.6798C46.7353 93.4906 46.3939 94.1714 45.8978 94.7221C45.3998 95.2807 44.7986 95.6636 44.0942 95.8709C43.3801 96.0842 42.6255 96.0993 41.8303 95.9163C40.8558 95.692 40.0808 95.2427 39.5054 94.5685C38.9299 93.8943 38.6275 93.0858 38.5982 92.1433L40.7967 92.6492C40.8815 93.03 41.0553 93.345 41.3181 93.5942C41.5731 93.8417 41.8916 94.0094 42.2736 94.0974C42.8895 94.2391 43.4378 94.1396 43.9185 93.7987C44.3992 93.4578 44.722 92.9288 44.8871 92.2115C45.0522 91.4943 44.9931 90.8773 44.7097 90.3606C44.4264 89.8439 43.9768 89.5146 43.3609 89.3729C42.9789 89.285 42.6191 89.2966 42.2816 89.4077C41.9363 89.517 41.6423 89.7244 41.3996 90.0297L39.2011 89.5237C39.6395 88.6888 40.2649 88.0939 41.0772 87.739C41.8877 87.392 42.7802 87.3306 43.7547 87.5549C44.5499 87.7379 45.2229 88.0775 45.7736 88.5737C46.3148 89.0758 46.6881 89.683 46.8936 90.3953C47.0991 91.1075 47.1085 91.869 46.9219 92.6798Z" fill="#6E7051"></path><path d="M30.9051 83.999L28.6452 82.5435L29.5029 81.2118L33.4879 83.7783L28.9266 90.8606L27.2015 89.7495L30.9051 83.999Z" fill="#6E7051"></path><path d="M18.3414 79.9105L19.6528 78.8225L17.8982 76.7076L19.1172 75.6962L20.8719 77.8111L22.2941 76.6311L20.3096 74.2392L21.5748 73.1894L24.8696 77.1606L18.3864 82.5395L15.0917 78.5683L16.3569 77.5186L18.3414 79.9105Z" fill="#6E7051"></path><path d="M9.03637 67.357C8.73471 66.5218 8.63663 65.7322 8.74214 64.9881C8.84764 64.244 9.14022 63.594 9.61986 63.038C10.0893 62.4772 10.7152 62.0554 11.4978 61.7728C12.2728 61.4929 13.0237 61.4173 13.7507 61.546C14.4749 61.6672 15.1167 61.984 15.6761 62.4964C16.2327 63.0014 16.6605 63.6677 16.9594 64.4954L18.0315 67.4637L10.1085 70.3253L9.03637 67.357ZM15.3339 65.2228C15.0703 64.493 14.6657 63.9969 14.1201 63.7346C13.5746 63.4724 12.9369 63.473 12.2071 63.7366C11.4772 64.0002 10.9825 64.4086 10.7229 64.9616C10.4634 65.5147 10.4654 66.1562 10.729 66.886L11.0592 67.8002L15.6641 66.137L15.3339 65.2228Z" fill="#6E7051"></path></svg>