<svg xmlns="http://www.w3.org/2000/svg" width="104" height="104" viewBox="0 0 104 104" fill="none"><circle cx="52" cy="52" r="51.5" fill="white" stroke="#6E7051"></circle><circle cx="52" cy="52" r="32" fill="#6E7051"></circle><path d="M42 43.6666H38.6667C38.6667 50.1093 43.8906 55.3333 50.3333 55.3333V62.8333C50.3333 63.2916 50.7083 63.6666 51.1667 63.6666H52.8333C53.2917 63.6666 53.6667 63.2916 53.6667 62.8333V55.3333C53.6667 48.8905 48.4427 43.6666 42 43.6666ZM62 40.3333C57.6146 40.3333 53.8021 42.7551 51.8073 46.3333C53.25 47.9062 54.3177 49.8176 54.8802 51.9374C60.75 51.328 65.3333 46.3697 65.3333 40.3333H62Z" fill="white"></path><path d="M24.1761 17.1981L28.469 25.0379L26.7585 26.9533L18.485 23.5708L19.9398 21.9418L26.0743 24.6208L22.7294 18.8181L24.1761 17.1981Z" fill="#6E7051"></path><path d="M34.3562 12.4382L35.088 13.9771L37.5697 12.797L38.2499 14.2275L35.7682 15.4076L36.5619 17.0765L39.3687 15.7418L40.0747 17.2265L35.4147 19.4424L31.7971 11.8348L36.457 9.61884L37.163 11.1035L34.3562 12.4382Z" fill="#6E7051"></path><path d="M51.9319 9.34883C51.7714 9.07361 51.545 8.86845 51.2527 8.73333C50.9682 8.58997 50.634 8.52417 50.2502 8.53592C49.5865 8.55625 49.0615 8.79243 48.6751 9.24446C48.2885 9.6885 48.1064 10.2744 48.1287 11.002C48.1524 11.7776 48.3789 12.379 48.8082 12.8061C49.2452 13.2249 49.8316 13.423 50.5672 13.4005C51.071 13.3851 51.4909 13.2442 51.8269 12.9777C52.1709 12.7111 52.4155 12.3354 52.5607 11.8508L49.9579 11.9305L49.9117 10.4192L54.3736 10.2825L54.432 12.1896C54.2957 12.7061 54.0504 13.1898 53.6961 13.6408C53.3497 14.0917 52.9008 14.4616 52.3494 14.7506C51.798 15.0396 51.1704 15.1949 50.4668 15.2164C49.6352 15.2419 48.886 15.0847 48.2193 14.745C47.5603 14.397 47.037 13.9048 46.6493 13.2684C46.2697 12.6317 46.0671 11.8975 46.0417 11.0659C46.0162 10.2343 46.1735 9.48915 46.5135 8.83043C46.8612 8.16348 47.3534 7.64017 47.9901 7.2605C48.6265 6.87284 49.3605 6.66628 50.1922 6.64081C51.1997 6.60996 52.0548 6.82789 52.7574 7.2946C53.468 7.76107 53.9485 8.42267 54.1988 9.27941L51.9319 9.34883Z" fill="#6E7051"></path><path d="M66.679 17.0831L63.7997 15.8205L62.7406 16.9808L60.7734 16.1182L66.9479 9.62745L69.1239 10.5817L68.5322 19.5206L66.543 18.6483L66.679 17.0831ZM66.8316 15.4204L67.1141 12.1768L64.9304 14.5867L66.8316 15.4204Z" fill="#6E7051"></path><path d="M78.3449 28.7254L76.9781 27.1949L78.5676 21.174L74.692 24.635L73.3252 23.1045L79.6084 17.4934L80.9752 19.0239L79.3678 25.0607L83.2613 21.5837L84.6281 23.1142L78.3449 28.7254Z" fill="#6E7051"></path><path d="M79.3446 87.3947L75.0517 79.5549L76.7622 77.6395L85.0357 81.022L83.581 82.651L77.4465 79.972L80.7914 85.7747L79.3446 87.3947Z" fill="#6E7051"></path><path d="M69.1645 92.1545L68.4328 90.6157L65.9511 91.7958L65.2708 90.3653L67.7525 89.1852L66.9589 87.5162L64.1521 88.851L63.4461 87.3663L68.106 85.1503L71.7237 92.758L67.0637 94.9739L66.3577 93.4892L69.1645 92.1545Z" fill="#6E7051"></path><path d="M51.5889 95.2439C51.7494 95.5192 51.9758 95.7243 52.2681 95.8594C52.5526 96.0028 52.8867 96.0686 53.2706 96.0569C53.9343 96.0365 54.4593 95.8003 54.8456 95.3483C55.2322 94.9043 55.4144 94.3184 55.3921 93.5908C55.3683 92.8151 55.1418 92.2138 54.7125 91.7867C54.2755 91.3679 53.6892 91.1697 52.9535 91.1923C52.4498 91.2077 52.0299 91.3486 51.6939 91.615C51.3499 91.8817 51.1053 92.2573 50.96 92.742L53.5628 92.6623L53.6091 94.1736L49.1472 94.3102L49.0888 92.4031C49.225 91.8867 49.4703 91.403 49.8247 90.9519C50.1711 90.5011 50.62 90.1312 51.1714 89.8422C51.7228 89.5532 52.3503 89.3979 53.054 89.3763C53.8856 89.3509 54.6348 89.508 55.3015 89.8478C55.9604 90.1958 56.4837 90.688 56.8714 91.3244C57.2511 91.9611 57.4536 92.6952 57.4791 93.5269C57.5046 94.3585 57.3473 95.1036 57.0073 95.7623C56.6596 96.4293 56.1673 96.9526 55.5307 97.3323C54.8942 97.7199 54.1602 97.9265 53.3286 97.952C52.3211 97.9828 51.466 97.7649 50.7634 97.2982C50.0528 96.8317 49.5723 96.1701 49.322 95.3134L51.5889 95.2439Z" fill="#6E7051"></path><path d="M36.8417 87.5096L39.721 88.7723L40.7802 87.6119L42.7474 88.4746L36.5729 94.9653L34.3969 94.0111L34.9886 85.0722L36.9777 85.9445L36.8417 87.5096ZM36.6891 89.1723L36.4067 92.416L38.5903 90.006L36.6891 89.1723Z" fill="#6E7051"></path><path d="M25.1759 75.8674L26.5427 77.3979L24.9532 83.4187L28.8287 79.9577L30.1955 81.4882L23.9124 87.0994L22.5455 85.5689L24.1529 79.5321L20.2595 83.0091L18.8927 81.4786L25.1759 75.8674Z" fill="#6E7051"></path><circle cx="94" cy="52" r="2" fill="#6E7051"></circle><circle cx="10" cy="52" r="2" fill="#6E7051"></circle></svg>