<svg xmlns="http://www.w3.org/2000/svg" width="104" height="104" viewBox="0 0 104 104" fill="none"><circle cx="52" cy="52" r="51.5" fill="white" stroke="#6E7051"></circle><circle cx="52" cy="52" r="32" fill="#6E7051"></circle><path d="M51.4113 51.7458C51.7354 52.0883 52.2631 52.0883 52.5918 51.7458L57.6332 46.459C59.0961 44.9221 59.0128 42.3759 57.374 40.9593C55.9481 39.7233 53.8232 39.9455 52.5178 41.3158L51.9993 41.8574L51.4854 41.3204C50.1799 39.9455 48.055 39.7233 46.6292 40.9593C44.995 42.3759 44.9071 44.9221 46.3699 46.459L51.4113 51.7458ZM64.8365 55.3382C64.2903 54.8428 63.4384 54.8752 62.8644 55.3382L58.5869 58.7593C58.0637 59.1805 57.411 59.4074 56.7351 59.4074H51.2586C50.8512 59.4074 50.5179 59.0741 50.5179 58.6667C50.5179 58.2593 50.8512 57.926 51.2586 57.926H54.8834C55.6194 57.926 56.3046 57.4214 56.4249 56.6946C56.5777 55.7687 55.8648 54.9632 54.9621 54.9632H47.5551C46.3051 54.9632 45.0969 55.3937 44.1247 56.1807L41.972 57.926H39.4074C39 57.926 38.6667 58.2593 38.6667 58.6667V63.1109C38.6667 63.5183 39 63.8516 39.4074 63.8516H55.925C56.5962 63.8516 57.249 63.6247 57.7767 63.2035L64.7763 57.6019C65.48 57.0418 65.5356 55.9678 64.8365 55.3382Z" fill="white"></path><circle cx="94" cy="52" r="2" fill="#6E7051"></circle><circle cx="10" cy="52" r="2" fill="#6E7051"></circle><path d="M11.4597 30.0599L19.2126 33.3547L18.3836 35.2318L15.1919 33.8754L13.9023 36.7953L17.094 38.1517L16.265 40.0288L8.51205 36.734L9.34107 34.8569L12.3782 36.1476L13.6678 33.2277L10.6307 31.937L11.4597 30.0599Z" fill="#6E7051"></path><path d="M24.4129 24.6429L22.2843 26.9567L23.0572 28.3139L21.6029 29.8947L17.359 22.0677L18.9677 20.3192L27.3389 23.6599L25.8683 25.2583L24.4129 24.6429ZM22.8694 23.9815L19.8534 22.7056L21.4639 25.5093L22.8694 23.9815Z" fill="#6E7051"></path><path d="M37.4138 17.7298L35.6048 18.6985L30.0527 15.7781L32.5793 20.3185L30.7702 21.2871L26.6742 13.926L28.4832 12.9574L34.0469 15.8987L31.5087 11.3374L33.3177 10.3687L37.4138 17.7298Z" fill="#6E7051"></path><path d="M44.3766 7.28251C45.2533 7.14137 46.0484 7.19161 46.7621 7.43324C47.4757 7.67487 48.0631 8.08268 48.5241 8.65669C48.9917 9.22153 49.2942 9.91425 49.4315 10.7348C49.5675 11.5475 49.5066 12.2988 49.2489 12.9885C48.9991 13.6769 48.5715 14.2481 47.9661 14.7021C47.3687 15.1548 46.6355 15.4511 45.7667 15.591L42.6508 16.0927L41.2607 7.78416L44.3766 7.28251ZM45.3433 13.8604C46.1094 13.737 46.6708 13.4319 47.0273 12.9451C47.3838 12.4582 47.4981 11.8321 47.37 11.0667C47.242 10.3014 46.929 9.73998 46.4312 9.38257C45.9334 9.02516 45.3015 8.90813 44.5353 9.03147L43.5757 9.18598L44.3837 14.0149L45.3433 13.8604Z" fill="#6E7051"></path><path d="M65.7357 8.46184L64.0493 16.7153L62.0356 16.3205L63.047 11.3708L60.1868 15.9581L58.5618 15.6395L57.715 10.3133L56.7012 15.2747L54.6875 14.88L56.374 6.6265L58.7527 7.09284L59.905 13.2616L63.3688 7.99781L65.7357 8.46184Z" fill="#6E7051"></path><path d="M74.1923 20.3142L71.5106 18.6732L70.2822 19.6657L68.45 18.5445L75.5703 13.0271L77.597 14.2672L75.6764 22.9665L73.8237 21.8329L74.1923 20.3142ZM74.5919 18.702L75.3564 15.5547L72.8212 17.6184L74.5919 18.702Z" fill="#6E7051"></path><path d="M87.3764 22.9513C87.9465 23.6321 88.3077 24.3375 88.4599 25.0674C88.6121 25.7974 88.5546 26.5011 88.2874 27.1787C88.0316 27.8574 87.5798 28.4577 86.9319 28.9798C86.2903 29.4968 85.6022 29.815 84.8676 29.9345C84.1381 30.06 83.4206 29.9756 82.7151 29.6813C82.0147 29.3931 81.382 28.9117 80.817 28.237L78.7907 25.8174L85.3501 20.5317L87.3764 22.9513ZM82.1151 27.0214C82.6133 27.6164 83.1662 27.9464 83.7737 28.0116C84.3812 28.0767 84.9871 27.8659 85.5913 27.379C86.1956 26.8921 86.5272 26.3475 86.5862 25.7452C86.6452 25.143 86.4256 24.5444 85.9274 23.9494L85.3034 23.2042L81.4911 26.2762L82.1151 27.0214Z" fill="#6E7051"></path><path d="M92.8991 35.0029L91.316 35.6332L92.3667 38.1724L90.895 38.7584L89.8443 36.2192L88.1274 36.9028L89.3158 39.7746L87.7884 40.3828L85.8155 35.6149L93.6419 32.4986L95.6148 37.2666L94.0874 37.8747L92.8991 35.0029Z" fill="#6E7051"></path><path d="M92.5403 73.9401L84.7874 70.6453L85.6164 68.7682L88.8081 70.1246L90.0977 67.2047L86.906 65.8483L87.735 63.9712L95.4879 67.266L94.6589 69.1431L91.6218 67.8524L90.3322 70.7723L93.3693 72.063L92.5403 73.9401Z" fill="#6E7051"></path><path d="M79.5871 79.3571L81.7157 77.0433L80.9428 75.6861L82.3971 74.1053L86.641 81.9323L85.0323 83.6808L76.6611 80.3401L78.1317 78.7417L79.5871 79.3571ZM81.1306 80.0185L84.1466 81.2944L82.5361 78.4907L81.1306 80.0185Z" fill="#6E7051"></path><path d="M66.5862 86.2702L68.3952 85.3015L73.9473 88.2219L71.4207 83.6815L73.2298 82.7129L77.3258 90.074L75.5168 91.0426L69.9531 88.1013L72.4913 92.6626L70.6823 93.6313L66.5862 86.2702Z" fill="#6E7051"></path><path d="M59.6234 96.7175C58.7467 96.8586 57.9516 96.8084 57.2379 96.5668C56.5243 96.3251 55.9369 95.9173 55.4759 95.3433C55.0083 94.7785 54.7058 94.0858 54.5685 93.2652C54.4325 92.4525 54.4934 91.7012 54.7511 91.0115C55.0009 90.3231 55.4285 89.7519 56.0339 89.2979C56.6313 88.8452 57.3645 88.5489 58.2333 88.409L61.3492 87.9073L62.7393 96.2158L59.6234 96.7175ZM58.6567 90.1396C57.8906 90.263 57.3292 90.5681 56.9727 91.0549C56.6162 91.5418 56.5019 92.1679 56.63 92.9333C56.758 93.6986 57.071 94.26 57.5688 94.6174C58.0666 94.9748 58.6985 95.0919 59.4647 94.9685L60.4243 94.814L59.6163 89.9851L58.6567 90.1396Z" fill="#6E7051"></path><path d="M38.2643 95.5382L39.9507 87.2847L41.9644 87.6795L40.953 92.6292L43.8132 88.0419L45.4382 88.3605L46.285 93.6867L47.2988 88.7253L49.3125 89.12L47.626 97.3735L45.2473 96.9072L44.095 90.7384L40.6312 96.0022L38.2643 95.5382Z" fill="#6E7051"></path><path d="M29.8077 83.6858L32.4894 85.3268L33.7178 84.3343L35.55 85.4555L28.4297 90.9729L26.403 89.7328L28.3236 81.0335L30.1763 82.1671L29.8077 83.6858ZM29.4081 85.298L28.6436 88.4453L31.1788 86.3816L29.4081 85.298Z" fill="#6E7051"></path><path d="M16.6236 81.0487C16.0535 80.3679 15.6923 79.6625 15.5401 78.9326C15.3879 78.2026 15.4454 77.4989 15.7126 76.8213C15.9684 76.1426 16.4202 75.5423 17.0681 75.0202C17.7097 74.5032 18.3978 74.185 19.1324 74.0655C19.8619 73.94 20.5794 74.0244 21.2849 74.3187C21.9853 74.6069 22.618 75.0883 23.183 75.763L25.2093 78.1826L18.6499 83.4683L16.6236 81.0487ZM21.8849 76.9786C21.3867 76.3836 20.8338 76.0536 20.2263 75.9884C19.6188 75.9233 19.0129 76.1341 18.4087 76.621C17.8044 77.1079 17.4728 77.6525 17.4138 78.2548C17.3548 78.857 17.5744 79.4556 18.0726 80.0506L18.6966 80.7958L22.5089 77.7238L21.8849 76.9786Z" fill="#6E7051"></path><path d="M11.1009 68.9971L12.684 68.3668L11.6333 65.8276L13.105 65.2416L14.1557 67.7808L15.8726 67.0972L14.6842 64.2254L16.2116 63.6172L18.1845 68.3851L10.3581 71.5014L8.38517 66.7334L9.91255 66.1253L11.1009 68.9971Z" fill="#6E7051"></path></svg>